<svg xmlns="http://www.w3.org/2000/svg" width="32" height="32" viewBox="0 0 32 32">
    <path fill="#8f35ff" fill-rule="evenodd" d="M16.333 17a4 4 0 1 1 0-8 4 4 0 0 1 0 8zm-5.165-2.667A5.332 5.332 0 0 0 12.806 17h-.472c-2.202 0-4 1.789-4 3.995v3.95C5.498 24.712 3 23.72 3 21.974V17a2.66 2.66 0 0 1 2.666-2.667h5.502zm10.33 0h5.503A2.658 2.658 0 0 1 29.667 17v4.973c0 1.747-2.5 2.738-5.334 2.973v-3.951a4 4 0 0 0-4-3.995h-.472a5.332 5.332 0 0 0 1.638-2.667zm-7.875-5.927a5.332 5.332 0 0 0-2.618 4.365 4 4 0 1 1 2.618-4.365zm8.04 4.365a5.326 5.326 0 0 0-2.619-4.368 4 4 0 1 1 2.618 4.368zM9.666 20.34c0-1.109.895-2.008 1.996-2.008h9.34c1.103 0 1.997.9 1.997 1.992v5.648c0 4.036-13.333 4.036-13.333 0v-5.631z"/>
</svg>
