<svg xmlns="http://www.w3.org/2000/svg" width="24" height="24" viewBox="0 0 24 24">
    <path fill="rgba(255, 255, 255, 0.3)" fill-rule="nonzero" d="M11.334 19.152l-5.954 3.13a.833.833 0 0 1-1.209-.878l1.137-6.63a.833.833 0 0 0-.24-.737L.253 9.34A.833.833 0 0 1 .713 7.92l6.657-.967a.833.833 0 0 0 .628-.456L10.975.465a.833.833 0 0 1 1.494 0l2.977 6.032a.833.833 0 0 0 .628.456l6.656.967a.833.833 0 0 1 .462 1.421l-4.817 4.696a.833.833 0 0 0-.24.737l1.138 6.63a.833.833 0 0 1-1.21.878l-5.953-3.13a.833.833 0 0 0-.776 0z"/>
</svg>
